<?xml version="1.0" standalone="no"?>
<!DOCTYPE svg PUBLIC "-//W3C//DTD SVG 20010904//EN"
 "http://www.w3.org/TR/2001/REC-SVG-20010904/DTD/svg10.dtd">
<svg version="1.0" xmlns="http://www.w3.org/2000/svg"
 width="200.000000pt" height="200.000000pt" viewBox="0 0 200.000000 200.000000"
 preserveAspectRatio="xMidYMid meet">

<g transform="translate(0.000000,200.000000) scale(0.100000,-0.100000)"
fill="#000000" stroke="none">
<path d="M391 1958 c-18 -5 -45 -16 -58 -25 -28 -19 -63 -82 -63 -115 0 -34
-11 -45 -58 -57 -50 -14 -74 -45 -74 -98 0 -29 7 -43 31 -65 31 -28 33 -28
165 -28 l135 0 21 30 c21 29 22 29 128 32 l107 3 3 31 c4 41 -33 84 -83 99
-36 10 -39 14 -50 63 -23 98 -112 155 -204 130z"/>
<path d="M1564 1881 c-49 -22 -83 -67 -91 -118 -7 -48 -16 -59 -55 -67 -36 -7
-68 -32 -68 -53 0 -11 13 -14 58 -13 31 2 62 2 69 1 6 0 33 -30 59 -66 l48
-65 133 0 c177 0 213 18 213 105 0 42 -33 81 -77 90 -50 12 -53 14 -53 43 0
49 -41 113 -90 139 -52 28 -91 29 -146 4z"/>
<path d="M613 1555 c4 -8 81 -113 173 -235 l166 -220 419 0 c230 0 419 3 419
6 0 3 -78 109 -172 235 l-173 229 -418 0 c-364 0 -418 -2 -414 -15z m504 -63
c26 -17 183 -237 183 -256 0 -12 -7 -32 -16 -44 -14 -21 -22 -22 -137 -22 -67
0 -128 4 -134 8 -23 15 -183 235 -183 252 0 10 9 29 21 44 20 25 23 26 137 26
64 0 123 -4 129 -8z"/>
<path d="M916 1418 c4 -7 37 -52 72 -100 l65 -88 84 0 c49 0 83 4 83 10 0 6
-30 51 -67 100 l-68 90 -88 0 c-68 0 -86 -3 -81 -12z"/>
<path d="M351 1301 l-181 -241 0 -480 0 -479 -76 -3 c-61 -2 -79 -7 -88 -21
-9 -15 -7 -21 8 -33 30 -21 1942 -21 1972 0 25 19 8 50 -30 54 -24 3 -26 7
-26 52 0 60 -29 99 -86 115 -35 10 -40 14 -45 50 -10 77 -52 115 -125 115 -49
0 -104 -53 -104 -102 0 -45 -8 -54 -58 -67 -51 -14 -73 -45 -80 -112 -4 -46
-6 -49 -33 -49 -29 0 -29 1 -29 58 0 80 36 138 101 163 18 7 30 22 38 48 38
129 202 174 298 82 l23 -22 0 301 0 300 -430 0 -430 0 0 -465 0 -465 -35 0
-35 0 0 477 0 476 -176 236 c-97 130 -180 240 -184 245 -5 4 -90 -100 -189
-233z m129 -421 c17 -17 20 -33 20 -114 0 -90 -1 -96 -26 -115 -22 -18 -41
-21 -111 -21 -76 0 -86 2 -108 25 -23 22 -25 32 -25 108 0 70 3 89 21 111 19
25 25 26 115 26 81 0 97 -3 114 -20z m328 4 c20 -14 22 -23 22 -115 0 -133 -6
-139 -130 -139 -124 0 -130 7 -130 137 0 129 4 133 124 133 67 0 98 -4 114
-16z m472 -4 c17 -17 20 -33 20 -114 0 -90 -1 -96 -26 -115 -22 -18 -41 -21
-111 -21 -76 0 -86 2 -108 25 -23 22 -25 32 -25 108 0 70 3 89 21 111 19 25
25 26 115 26 81 0 97 -3 114 -20z m469 -6 c18 -22 21 -41 21 -111 0 -76 -2
-86 -25 -108 -24 -24 -28 -25 -180 -25 -198 0 -195 -2 -195 137 0 137 -6 133
196 133 l163 0 20 -26z m-1275 -425 l26 -20 0 -165 0 -164 -35 0 -35 0 0 150
0 150 -65 0 -65 0 0 -150 0 -150 -35 0 -35 0 0 160 c0 157 1 161 25 185 22 23
32 25 108 25 70 0 89 -3 111 -21z m336 1 c17 -17 20 -33 20 -119 0 -126 -5
-131 -130 -131 -125 0 -130 5 -130 131 0 133 6 139 130 139 77 0 93 -3 110
-20z m464 -1 c25 -19 26 -25 26 -115 0 -128 -6 -134 -134 -134 -90 0 -96 1
-115 26 -18 22 -21 41 -21 111 0 76 2 86 25 108 22 23 32 25 108 25 70 0 89
-3 111 -21z"/>
<path d="M300 765 l0 -65 65 0 65 0 0 65 0 65 -65 0 -65 0 0 -65z"/>
<path d="M630 765 l0 -65 70 0 70 0 0 65 0 65 -70 0 -70 0 0 -65z"/>
<path d="M1100 765 l0 -65 65 0 65 0 0 65 0 65 -65 0 -65 0 0 -65z"/>
<path d="M1430 765 l0 -65 135 0 135 0 0 65 0 65 -135 0 -135 0 0 -65z"/>
<path d="M630 335 l0 -65 70 0 70 0 0 65 0 65 -70 0 -70 0 0 -65z"/>
<path d="M1100 335 l0 -65 65 0 65 0 0 65 0 65 -65 0 -65 0 0 -65z"/>
</g>
</svg>
